<?xml version="1.0" encoding="utf-8"?>
<!-- Generator: Adobe Illustrator 20.1.0, SVG Export Plug-In . SVG Version: 6.00 Build 0)  -->
<svg version="1.1" id="Layer_1" xmlns="http://www.w3.org/2000/svg" xmlns:xlink="http://www.w3.org/1999/xlink" x="0px" y="0px"
	 viewBox="0 0 168.2 124.5" style="enable-background:new 0 0 168.2 124.5;" xml:space="preserve">
<style type="text/css">
	.st0{fill:#FFFFFF;}
</style>
<g id="Layer_1_1_">
	<path class="st0" d="M88.3,27c-0.9-2.9-2.4-5.9-4.4-8.9c-0.7-1.1-1.4-2.2-2.2-3.1c-0.8-0.8-1.3-1.7-2.1-2.4
		C70.8,4.5,61.2,0.4,50.7,0c-4.4-0.1-9.1,0.5-14.2,4c-0.2,0.2-0.5,0.4-0.8,0.6c-0.4,0.4-0.9,0.8-1.3,1.2c-1.2,1.3-2.2,2.7-3,4.1
		c-2,4.1-2.7,8.3-2.6,12.8c0,1.2,0.1,2.4,0.3,3.6c0.3,1.7,0.6,3.3,1,5.1c0.4,1.7,1.1,3.4,1.7,5.1c0.7,1.9,1.8,3.7,2.6,5.7
		c0.5,1.1,1.3,2.1,1.9,3.2c0.5,0.7,1,1.5,1.5,2.2c0.4,0.6,0.8,1.2,1.3,1.7c1,1.1,2,2.3,3,3.3c1.1,1,2.2,2.1,3.3,2.9
		c6.8,4.8,13.2,7.4,21,7.2c2.8-0.1,5.5-0.6,8.5-1.6c0.9-0.3,1.8-0.8,2.8-1.3c0.3-0.2,0.7-0.4,1-0.6c1-0.4,2.3-1.4,3-2.1
		c1.5-1.4,2.8-2.7,3.9-4.1C91.1,45.3,91.3,36.4,88.3,27z M64.7,23.3c-2.3,0-4,1.1-5.2,3.3s-1.8,5.4-1.8,9.7c0,8.1,2.7,12.2,8,12.2
		c2.6,0,5.5-1.2,8.5-3.5c0.7,0.4,1.3,1,1.9,1.8s1,1.7,1.2,2.5c-3.5,3.5-7.7,5.2-12.7,5.2c-2.5,0-4.7-0.5-6.5-1.4s-3.3-2.2-4.5-3.9
		c-1.2-1.6-2.1-3.6-2.7-5.9C50.3,41,50,38.4,50,35.7c0-2.9,0.4-5.4,1.2-7.7c0.8-2.2,1.9-4.1,3.2-5.6s2.9-2.7,4.7-3.5
		s3.6-1.2,5.6-1.2s3.8,0.3,5.4,0.9s2.9,1.4,4,2.4s2,2.1,2.5,3.4c0.6,1.3,0.9,2.6,0.9,3.9c0,2.7-1.2,4-3.7,4c-1.2,0-2.2-0.1-3-0.3
		v-0.8C70.9,26,68.9,23.3,64.7,23.3z"/>
</g>
<g id="Layer_2">
	<g>
		<path class="st0" d="M21.8,105.7l0.9,2.4c0,0-3.5,2.7-9.8,2.7c-7,0-12.9-5.6-12.9-15.7c0-10,5.8-16.3,12.8-16.3
			c5.7,0,9.2,2.7,9.2,2.7l-0.9,2.4c0,0-3.3-1.7-7.4-1.7c-5.7,0-9.8,5.4-9.8,12.9c0,7.4,4.2,12.4,9.9,12.4
			C18.6,107.5,21.8,105.7,21.8,105.7z"/>
		<path class="st0" d="M65.9,105.1c3.3,0,10.3,1.2,10.3,8.8c0,7.2-6.1,10.1-13.7,10.1c-8.6,0-12.3-3.7-12.3-8.8
			c0-3.7,2.3-6.6,3.6-7.9c-1-0.7-1.6-1.9-1.6-3.5c0-2.4,2.2-4.7,2.8-5.4c-1.9-2-2.8-4.8-2.8-8.1c0-6.8,4.9-11.2,11-11.2
			c2.3,0,4.3,0.5,5.8,1.4c0.6-0.3,3.5-1,7.7-1v3.1c-4.3,0-5.4-0.2-5.4-0.2l-0.1,0.1c0,0,1.4,1.2,2.3,3.6c0.5,1.2,0.7,2.7,0.7,4.2
			c0,6.5-4.7,11.1-11,11.1c-2.4,0-4.5-0.5-6.1-1.4c-1.2,1.4-3.1,5.1,0.9,5.1C58,105.1,65.9,105.1,65.9,105.1z M72.4,113.9
			c0-3.7-3.3-5.6-6.5-5.6H58c-0.5,0-1,0-1.4-0.1c0,0-2.6,1.9-2.6,6.3c0,5.6,4.9,6.2,8.7,6.2C67,120.7,72.4,119.4,72.4,113.9z
			 M55.9,90.3c0,4.6,2,7.9,7.3,7.9c4.7,0,7.3-3.3,7.3-7.9c0-4.7-2-7.9-7.3-7.9C58.5,82.4,55.9,85.5,55.9,90.3z"/>
		<path class="st0" d="M103.3,92.5v17.6h-4V92.5c0-5.6-1.8-10.4-6.2-10.4c-3.6,0-6.5,2.6-9.2,6.2v21.8h-4V79.5H83
			c0,0,0.4,2.3,0.6,4.6c1.8-2.2,5.2-5.4,9.7-5.4C100.7,78.8,103.3,84.2,103.3,92.5z"/>
		<path class="st0" d="M111.1,74.4c-1.3,0-2.4-1-2.4-2.3c0-1.2,1.1-2.3,2.4-2.3s2.4,1,2.4,2.3C113.4,73.4,112.4,74.4,111.1,74.4z
			 M113,79.5v30.6h-4V79.5H113z"/>
		<path class="st0" d="M125.9,73.8v5.8h7.8V83c-3.4,0-5.9-0.2-7.8-0.5v27.6H122V83h-5.5v-3.5h5.5v-5.8c0-7.6,3-10.3,8.3-10.3
			c3.4,0,6.6,2.4,6.6,2.4l-0.9,2.3c0,0-3.1-1.4-5.6-1.4C128,66.8,125.9,68.1,125.9,73.8z"/>
		<path class="st0" d="M139.1,74.4c-1.3,0-2.4-1-2.4-2.3c0-1.2,1.1-2.3,2.4-2.3c1.3,0,2.4,1,2.4,2.3S140.4,74.4,139.1,74.4z
			 M141.1,79.5v30.6h-4V79.5H141.1z"/>
		<path class="st0" d="M167.3,105.7l0.9,2.4c0,0-3.5,2.7-9.8,2.7c-7,0-12.9-5.6-12.9-15.7c0-10,5.8-16.3,12.8-16.3
			c5.7,0,9.2,2.7,9.2,2.7l-0.9,2.4c0,0-3.3-1.7-7.4-1.7c-5.7,0-9.8,5.4-9.8,12.9c0,7.4,4.2,12.4,9.9,12.4
			C164.1,107.5,167.3,105.7,167.3,105.7z"/>
		<path class="st0" d="M46.6,79.5L38.4,106c-1.1-0.1-1.9-1.8-2-2l-8.2-24.3H24l8.7,25.8c0.6,1.4,2.1,3.7,4.4,4.4l-0.1,0.2l-1,3.9
			c-1.2,4.1-2.8,7.2-5.9,7.2c-1.6,0-3.1-0.7-4-1.2l-1.4,2.2c1.4,1.4,3.5,2.4,5.6,2.4c4.9,0,7.7-3.5,9.5-9.6l10.9-35.4L46.6,79.5
			L46.6,79.5z"/>
	</g>
</g>
</svg>
