<?xml version="1.0" encoding="utf-8"?>
<!-- Generator: Adobe Illustrator 20.1.0, SVG Export Plug-In . SVG Version: 6.00 Build 0)  -->
<svg version="1.1" id="Capa_1" xmlns="http://www.w3.org/2000/svg" xmlns:xlink="http://www.w3.org/1999/xlink" x="0px" y="0px"
	 viewBox="0 0 512 512" style="enable-background:new 0 0 512 512;" xml:space="preserve">
<style type="text/css">
	.st0{fill:#2692D8;}
</style>
<g>
	<path class="st0" d="M66.7,288H2H0v160l47.4-43.6C93.8,469.5,170,512,256,512c130.6,0,238.3-97.7,254-224h-64.7
		c-15.2,90.8-94.2,160-189.3,160c-67.4,0-126.7-34.8-161-87.3l79.1-72.7H66.7z"/>
	<path class="st0" d="M256,0C125.4,0,17.7,97.7,2,224h64.7C81.9,133.2,160.9,64,256,64c69.4,0,130.2,36.8,164,92l-68,68h64h29.3H510
		h2V64l-45.8,45.8C419.9,43.4,343,0,256,0z"/>
</g>
</svg>
