<svg id="Capa_1" data-name="Capa 1" xmlns="http://www.w3.org/2000/svg" viewBox="0 0 477.16 477.07"><title>phone</title><g id="phone"><path d="M475,380.32l-2.37-7.16c-5.62-16.72-24.06-34.16-41-38.75l-62.69-17.12c-17-4.62-41.25,1.59-53.69,14L292.57,354A240.66,240.66,0,0,1,123.21,184.63l22.69-22.69c12.44-12.44,18.66-36.66,14-53.66L142.84,45.56c-4.62-17-22.09-35.41-38.78-41L96.9,2.19c-16.72-5.56-40.56.06-53,12.5L10,48.66C3.9,54.69,0,71.94,0,72A400.55,400.55,0,0,0,404.2,477.1c.56,0,18.31-3.81,24.38-9.85l33.94-33.94C474.95,420.88,480.57,397,475,380.32Z" transform="translate(0 -0.04)"/></g><path id="mail" d="M476.4,358.83V118.33c0-25.39-18.71-46.1-42.09-46.1H42.83C19.45,72.23.74,92.94.74,118.33v240.5c0,25.39,18.71,46.1,42.09,46.1H434.31C457.69,404.92,477.07,384.21,476.4,358.83ZM435.89,113.76,238.57,228.56,45.4,113.65H434.31A11.71,11.71,0,0,1,435.89,113.76Zm-1.58,251.08H42.83c-5.34,0-8-3.34-8-5.34V152.05L237.9,273.32,442.33,154V359.5C442.33,361.5,439,364.84,434.31,364.84Z" transform="translate(0 -0.04)"/></svg>