<svg id="Layer_4" data-name="Layer 4" xmlns="http://www.w3.org/2000/svg" viewBox="0 0 61.32 76.08"><defs><style>.cls-1{fill:#0193d7;}.cls-2{font-size:35.59px;fill:#fff;font-family:SourceSansPro-It, Source Sans Pro;font-style:italic;}</style></defs><title>pin4</title><path class="cls-1" d="M75.08,33.69a37.24,37.24,0,0,0-4.39-8.87,24.8,24.8,0,0,0-2.23-3.07c-.76-.82-1.31-1.73-2.08-2.45C57.58,11.16,48,7.05,37.55,6.69a22.66,22.66,0,0,0-14.22,4l-.75.58-1.31,1.19a18.14,18.14,0,0,0-3,4.11,26.46,26.46,0,0,0-2.6,12.78A25.38,25.38,0,0,0,16,32.95c.27,1.67.62,3.34,1,5.06a44,44,0,0,0,1.67,5.15c.67,1.91,1.76,3.68,2.64,5.68.49,1.13,1.31,2.07,1.93,3.22l1.49,2.19L26,56c1,1.13,2,2.32,3,3.29a35.69,35.69,0,0,0,3.33,2.93,37.52,37.52,0,0,0,13.28,6.42l5,14.13,5.62-13.6a29.8,29.8,0,0,0,5.65-1.39c.93-.32,1.8-.85,2.76-1.27l1-.62a12.85,12.85,0,0,0,3-2.1,29.59,29.59,0,0,0,3.87-4.15C77.87,52,78.08,43.1,75.08,33.69Z" transform="translate(-15.69 -6.67)"/><text class="cls-2" transform="translate(24.64 44.29)">4</text></svg>