<svg id="Layer_3" data-name="Layer 3" xmlns="http://www.w3.org/2000/svg" viewBox="0 0 90.95 88"><defs><style>.cls-1{fill:#083a63;}.cls-2{fill:#5392d4;}</style></defs><title>service_social</title><path class="cls-1" d="M27.22,87.4a16.7,16.7,0,1,1,16.7-16.7A16.72,16.72,0,0,1,27.22,87.4Zm0-29.65A12.95,12.95,0,1,0,40.17,70.7,13,13,0,0,0,27.22,57.75Z" transform="translate(-10.53 -26.7)"/><path class="cls-1" d="M39.25,63.91a1.88,1.88,0,0,1-.76-3.59l30.7-13.66a1.87,1.87,0,0,1,1.53,3.41L40,63.75A1.9,1.9,0,0,1,39.25,63.91Z" transform="translate(-10.53 -26.7)"/><path class="cls-1" d="M70,94.89a1.73,1.73,0,0,1-.78-.18L38.77,80.63a1.87,1.87,0,0,1,1.58-3.39L70.74,91.32a1.86,1.86,0,0,1,.91,2.49A1.89,1.89,0,0,1,70,94.89Z" transform="translate(-10.53 -26.7)"/><path class="cls-2" d="M84.78,60.09a16.7,16.7,0,1,1,16.7-16.7A16.72,16.72,0,0,1,84.78,60.09Zm0-29.65A12.95,12.95,0,1,0,97.73,43.4,13,13,0,0,0,84.78,30.45Z" transform="translate(-10.53 -26.7)"/><path class="cls-2" d="M84.78,114.7A16.7,16.7,0,1,1,101.47,98,16.72,16.72,0,0,1,84.78,114.7Zm0-29.65A12.95,12.95,0,1,0,97.73,98,13,13,0,0,0,84.78,85.05Z" transform="translate(-10.53 -26.7)"/></svg>