<svg id="Layer_4" data-name="Layer 4" xmlns="http://www.w3.org/2000/svg" viewBox="0 0 94.8 94.8"><defs><style>.cls-1{fill:#083a63;}.cls-2{fill:#5392d4;}</style></defs><title>service_support</title><path class="cls-1" d="M56.1,23.95a47.4,47.4,0,1,0,47.4,47.4A47.4,47.4,0,0,0,56.1,23.95Zm0,86.18A38.78,38.78,0,1,1,94.88,71.35,38.76,38.76,0,0,1,56.1,110.13Z" transform="translate(-8.7 -23.95)"/><path class="cls-2" d="M60.41,69.52v-24a4.31,4.31,0,1,0-8.62,0V71.35h0a2.37,2.37,0,0,0,.11.86c0,.11.11.22.11.43s.11.32.11.43.11.32.22.43.11.22.22.32a2.86,2.86,0,0,0,.54.65L65.26,86.65a4.34,4.34,0,0,0,6.14-6.14Z" transform="translate(-8.7 -23.95)"/></svg>