<svg id="Layer_1" data-name="Layer 1" xmlns="http://www.w3.org/2000/svg" viewBox="0 0 95 107.2"><defs><style>.cls-1{fill:#083a63;}.cls-2{fill:#5392d4;}</style></defs><title>service_calls</title><path class="cls-1" d="M81.4,70.6a9,9,0,0,1,7.9-8.9V55.5a33.25,33.25,0,1,0-66.5,0v6.2a8.9,8.9,0,0,1,7.9,8.9V85.4a9,9,0,0,1-9,9H17.5a9,9,0,0,1-9-9V70.6a9,9,0,0,1,7.9-8.9V55.5a39.6,39.6,0,0,1,79.2,0v6.2a8.9,8.9,0,0,1,7.9,8.9V85.4a9,9,0,0,1-9,9H90.3a9,9,0,0,1-9-9l.1-14.8Z" transform="translate(-8.5 -15.9)"/><path class="cls-2" d="M44.1,114.2a5.59,5.59,0,0,1,5.6-5.6H60.9A5.48,5.48,0,0,1,66,112,33,33,0,0,0,85.1,96.6a11.78,11.78,0,0,0,5.3,1.2h1.2a40,40,0,0,1-25.3,20.8,5.58,5.58,0,0,1-5.5,4.5H49.7a5.59,5.59,0,0,1-5.6-5.6v-3.3Z" transform="translate(-8.5 -15.9)"/></svg>