<?xml version="1.0" encoding="utf-8"?>
<!-- Generator: Adobe Illustrator 20.1.0, SVG Export Plug-In . SVG Version: 6.00 Build 0)  -->
<svg version="1.1" id="Layer_1" xmlns="http://www.w3.org/2000/svg" xmlns:xlink="http://www.w3.org/1999/xlink" x="0px" y="0px"
	 viewBox="0 0 383.9 383.9" style="enable-background:new 0 0 383.9 383.9;" xml:space="preserve">
<style type="text/css">
	.st0{fill:#FFFFFF;}
</style>
<g id="linkedin">
	<g>
		<path class="st0" d="M124.2,310.6V152.1H73.3v158.6h50.9V310.6z M100.6,128.1c17,0,27.5-12.1,27.5-27.3
			c-0.3-15.5-10.6-27.3-27.2-27.3s-27.5,11.9-27.5,27.3c0,15.2,10.6,27.3,26.9,27.3H100.6L100.6,128.1z"/>
		<path class="st0" d="M251.9,148.4c-27,0-38.6,15.2-46,25.8v-22.1h-51v158.5h51v-90.3c0-4.6,0.4-9.3,1.8-12.5
			c3.7-9.3,12-18.8,26.1-18.8c18.4,0,25.9,14.2,25.9,34.9v86.7h51V218C310.6,170.5,285.4,148.4,251.9,148.4z"/>
	</g>
</g>
<g id="facebook_1_">
	<path id="facebook" class="st0" d="M213.9,340.3V208.5h43.9l11-54.9h-54.9v-22c0-22,11-33,33-33h22V43.7c-11,0-24.6,0-43.9,0
		c-40.4,0-65.9,31.6-65.9,76.9v33h-43.9v54.9H159v131.8H213.9z"/>
</g>
<g id="twitter">
	<path class="st0" d="M325.5,110.7c-9.8,4.3-20.6,7.1-31.5,8.7c11.4-6.5,20.1-17.4,23.9-30.4c-10.9,6.5-22.2,10.9-34.7,13.6
		c-9.8-10.9-24.4-17.4-40.1-17.4c-30.4,0-54.8,24.4-54.8,54.8c0,4.3,0.5,8.7,1.6,12.5C144.3,149.7,104.1,128,77,94.9
		c-4.9,8.1-7.6,17.4-7.6,27.7c0,19,9.8,35.8,24.4,45.6c-9.2-0.5-17.4-2.7-25-7.1v0.5c0,26.6,19,48.8,43.9,53.7
		c-4.3,1.1-9.2,2.2-14.6,2.2c-3.8,0-7.1-0.5-10.3-1.1c7.1,21.7,27.1,37.4,51,38C120.9,269,97,278.3,71.5,278.3c-4.3,0-8.7,0-13-0.5
		c24.4,15.7,53.2,24.4,84.1,24.4c100.9,0,156.2-83.5,156.2-156.2c0-2.2,0-4.9,0-7.1C309.2,131.3,318.4,121.5,325.5,110.7z"/>
</g>
<g id="search2">
	<path id="search2_1_" class="st0" d="M321.3,288.5L258.8,226c10.6-16.9,16.8-36.8,16.8-58.2c0-60.6-49.1-109.7-109.7-109.7
		S56.2,107.2,56.2,167.8s49.1,109.7,109.7,109.7c23.3,0,44.9-7.3,62.6-19.7l61.7,61.7c4.3,4.3,9.9,6.4,15.5,6.4s11.2-2.1,15.5-6.4
		C329.8,310.9,329.8,297,321.3,288.5z M165.9,241.9c-40.9,0-74.1-33.2-74.1-74.1s33.2-74.1,74.1-74.1s74.1,33.2,74.1,74.1
		S206.9,241.9,165.9,241.9z"/>
</g>
<g id="search_2_">
	<path id="search_3_" class="st0" d="M321.3,288.5L258.8,226c10.6-16.9,16.8-36.8,16.8-58.2c0-60.6-49.1-109.7-109.7-109.7
		S56.2,107.2,56.2,167.8s49.1,109.7,109.7,109.7c23.3,0,44.9-7.3,62.6-19.7l61.7,61.7c4.3,4.3,9.9,6.4,15.5,6.4s11.2-2.1,15.5-6.4
		C329.8,310.9,329.8,297,321.3,288.5z M165.9,241.9c-40.9,0-74.1-33.2-74.1-74.1s33.2-74.1,74.1-74.1s74.1,33.2,74.1,74.1
		S206.9,241.9,165.9,241.9z"/>
</g>
</svg>
